<?xml version="1.0" encoding="utf-8"?>
<!-- Generator: Adobe Illustrator 25.0.1, SVG Export Plug-In . SVG Version: 6.00 Build 0)  -->
<svg version="1.1" id="Capa_1" xmlns="http://www.w3.org/2000/svg" xmlns:xlink="http://www.w3.org/1999/xlink" x="0px" y="0px"
	 viewBox="0 0 266.9 430" style="enable-background:new 0 0 266.9 350.7;" xml:space="preserve" width="30px" height="45px">
<style type="text/css">
	.st0{fill:#BFBFBF;}
	.st1{fill:#FFFFFF;}
	.st2{fill:#42CC42;}
	.st3{fill:#E0D220;}
	.st4{fill:#F79F34;}
	.st5{fill:#F24646;}
	.st6{fill:#B22B2B;}
</style>
<g>
	<g>
		<path class="st0" d="M133.8,0h-0.6C59.7,0,0,59.7,0,133.1c0,48.1,21.9,111.6,65.1,188.7c32,57.2,64.5,101,64.9,101.4
			c0.9,1.2,2.3,1.9,3.8,1.9h0.1c1.6,0,3-0.8,3.9-2.1c0.3-0.5,32.6-49.2,64.4-108.8c43-80.4,64.7-141.4,64.7-181.2
			C266.9,59.7,207.2,0,133.8,0z"/>
		<path class="st1" d="M133.8,20C196.2,20,247,70.7,247,133.1c0,45.4-33.9,118.5-62.4,171.7c-19.5,36.6-39.2,69-51.4,88.4
			c-12.2-17.7-31.5-47-50.6-81.2c-20.9-37.3-36.8-71.7-47.3-102C25.2,180.6,20,154.7,20,133C20,70.7,70.7,20,133.2,20H133.8
			 M133.8,0h-0.6C59.7,0,0,59.7,0,133.1c0,48.1,21.9,111.6,65.1,188.7c32,57.2,64.5,101,64.9,101.4c0.9,1.2,2.3,1.9,3.8,1.9h0.1
			c1.6,0,3-0.8,3.9-2.1c0.3-0.5,32.6-49.2,64.4-108.8c43-80.4,64.7-141.4,64.7-181.2C266.9,59.7,207.2,0,133.8,0L133.8,0z"/>
	</g>
</g>
<rect x="-328.2" y="88.9" class="st2" width="77.7" height="77.7"/>
<rect x="-328.2" y="164.1" class="st3" width="77.7" height="77.7"/>
<rect x="-328.2" y="239.4" class="st4" width="77.7" height="77.7"/>
<rect x="-328.2" y="314.6" class="st5" width="77.7" height="77.7"/>
<rect x="-328.2" y="392.1" class="st6" width="77.7" height="77.7"/>
<text transform="matrix(1 0 0 1 -296.1592 137.5339)" class="st1" style="font-family:'MyriadPro-Regular'; font-size:28.5315px;">4</text>
<text transform="matrix(1 0 0 1 -296.1592 208.862)" class="st1" style="font-family:'MyriadPro-Regular'; font-size:28.5315px;">4</text>
<text transform="matrix(1 0 0 1 -296.1592 280.1911)" class="st1" style="font-family:'MyriadPro-Regular'; font-size:28.5315px;">4</text>
<text transform="matrix(1 0 0 1 -296.1592 361.03)" class="st1" style="font-family:'MyriadPro-Regular'; font-size:28.5315px;">4</text>
<text transform="matrix(1 0 0 1 -296.1592 441.8689)" class="st1" style="font-family:'MyriadPro-Regular'; font-size:28.5315px;">4</text>
</svg>
